<?xml version="1.0" standalone="no"?>
<!DOCTYPE svg PUBLIC "-//W3C//DTD SVG 20010904//EN"
 "http://www.w3.org/TR/2001/REC-SVG-20010904/DTD/svg10.dtd">
<svg version="1.0" xmlns="http://www.w3.org/2000/svg"
 width="512.000000pt" height="512.000000pt" viewBox="0 0 512.000000 512.000000"
 preserveAspectRatio="xMidYMid meet">
<metadata>
Created by potrace 1.11, written by Peter Selinger 2001-2013
</metadata>
<g transform="translate(0.000000,512.000000) scale(0.100000,-0.100000)"
fill="#000000" stroke="none">
<path d="M4050 5099 c-27 -8 -154 -130 -543 -517 l-507 -507 -1165 0 c-1030 0
-1165 2 -1166 15 -1 8 -2 182 -4 385 -1 204 -3 373 -4 377 -4 21 -56 41 -100
39 -145 -7 -275 -65 -381 -171 -87 -86 -132 -163 -160 -277 -20 -76 -20 -115
-18 -1748 l3 -1670 25 -65 c74 -198 235 -341 428 -379 36 -8 441 -11 1230 -11
l1176 0 -228 -230 c-222 -223 -228 -230 -222 -262 3 -18 16 -41 27 -50 20 -17
98 -18 1326 -18 l1304 0 24 25 25 24 0 1304 c0 1255 -1 1305 -19 1325 -21 25
-58 33 -86 20 -11 -6 -71 -60 -132 -121 -62 -62 -113 -109 -114 -107 0 3 -1
353 -2 777 l-2 772 -23 23 c-22 22 -24 23 -322 23 -165 0 -300 2 -300 3 0 2
97 101 216 220 137 137 224 232 235 257 25 54 24 137 -1 189 -22 46 -288 317
-335 342 -37 20 -138 27 -185 13z m376 -4126 l-1 -278 -277 -3 c-153 -1 -278
0 -278 2 0 5 550 556 554 556 2 0 3 -125 2 -277z"/>
</g>
</svg>
